# xmcd
#
# Track frame offsets: 
#        150
#        23818
#        48613
#        79935
#        94695
#        115940
#        142428
#        223493
#
# Disc length: 3968 seconds
#
# Revision: 0
# Processed by: cddbd v1.4PL0 Copyright (c) Steve Scherf et al.
# Submitted via: ExactAudioCopy v0.90b2
#
DISCID=7b0f7e08
DTITLE=Gershwin - Slovak Philharmonic - Gershwin
DYEAR=1991
DGENRE=Classical
TTITLE0=Porgy and Bess - I Got Plenty O' Nuttin'
TTITLE1=Porgy and Bess - Summertime
TTITLE2=Porgy and Bess - I Loves You, Porgy
TTITLE3=Porgy and Bess - It Ain't Necessarily So
TTITLE4=Porgy and Bess - Bess, You Is My Woman
TTITLE5=Porgy and Bess - There's a Boat Thats's Leavin' Soon For New Yor
TTITLE5=k
TTITLE6=An American In Paris
TTITLE7=Rhapsody In Blue
EXTD=
EXTT0=
EXTT1=
EXTT2=
EXTT3=
EXTT4=
EXTT5=
EXTT6=
EXTT7=
PLAYORDER=
